# xmcd
#
# Track frame offsets: 
#        150
#        16415
#        40982
#        69410
#        92830
#        103495
#        136360
#        160117
#        185772
#        210887
#
# Disc length: 2939 seconds
#
# Revision: 4
# Processed by: cddbd v1.5.2PL0 Copyright (c) Steve Scherf et al.
# Submitted via: ExactAudioCopyFreeDBPlugin 1.0
#
DISCID=880b790a
DTITLE=Bal-Sagoth - Atlantis Ascendant
DYEAR=2001
DGENRE=Metal
TTITLE0=The Epsilon Exordium
TTITLE1=Atlantis Ascendant
TTITLE2=Draconis Albionensis
TTITLE3=Star-Maps Of The Ancient Cosmographers
TTITLE4=The Ghosts Of Angkor Wat
TTITLE5=The Splendour Of A Thousand Swords Gleaming Beneath The Blazon
TTITLE5=Of The Hyperborean Empire (Part: III)
TTITLE6=The Dreamer In The Catacombs Of Ur
TTITLE7=In Search Of The Lost Cities Of Antarctica
TTITLE8=The Chronicle Of Shadows
TTITLE9=Six Keys To The Onyx Pyramid
EXTD=YEAR: 2001
EXTT0=
EXTT1=
EXTT2=
EXTT3=
EXTT4=
EXTT5=
EXTT6=
EXTT7=
EXTT8=
EXTT9=
PLAYORDER=
